<?xml version="1.0" standalone="no"?>
<!DOCTYPE svg PUBLIC "-//W3C//DTD SVG 20010904//EN"
 "http://www.w3.org/TR/2001/REC-SVG-20010904/DTD/svg10.dtd">
<svg version="1.0" xmlns="http://www.w3.org/2000/svg"
 width="768.000000pt" height="768.000000pt" viewBox="0 0 768.000000 768.000000"
 preserveAspectRatio="xMidYMid meet">
<metadata>
Created by potrace 1.11, written by Peter Selinger 2001-2013
</metadata>
<g transform="translate(0.000000,768.000000) scale(0.100000,-0.100000)"
fill="#000000" stroke="none">
<path d="M6808 6437 c-15 -18 -42 -50 -60 -72 -18 -21 -40 -46 -48 -55 -14
-14 -87 -100 -135 -159 -11 -13 -27 -31 -35 -40 -9 -9 -40 -45 -70 -81 -30
-36 -57 -67 -60 -70 -3 -3 -32 -36 -65 -75 -33 -38 -62 -72 -65 -75 -3 -3 -27
-32 -55 -65 -27 -33 -54 -65 -60 -71 -5 -6 -30 -35 -55 -64 -25 -29 -49 -58
-55 -64 -5 -6 -35 -40 -65 -76 -30 -36 -67 -78 -81 -95 -15 -16 -60 -68 -100
-115 -95 -113 -162 -191 -174 -204 -5 -6 -50 -58 -100 -116 -49 -58 -100 -116
-112 -129 -12 -14 -20 -27 -18 -29 4 -4 73 -19 120 -26 19 -3 93 -17 175 -32
43 -8 71 -12 89 -13 20 -1 7 -41 -59 -176 -81 -166 -166 -291 -320 -469 -49
-57 -270 -276 -309 -306 -18 -14 -44 -35 -59 -48 -61 -52 -254 -193 -279 -205
-13 -6 -23 -14 -23 -19 0 -4 -4 -8 -9 -8 -5 0 -51 -26 -102 -59 -52 -32 -116
-71 -144 -86 -55 -31 -338 -176 -343 -175 -1 1 -24 -9 -50 -20 -65 -30 -214
-88 -270 -106 -26 -8 -54 -18 -62 -21 -8 -3 -19 -5 -24 -4 -4 1 -13 -2 -20 -8
-10 -8 -264 -74 -331 -86 -16 -2 -41 -7 -55 -10 -22 -4 -53 -9 -130 -21 -251
-40 -642 -48 -878 -19 -20 3 -59 7 -87 10 -54 5 -123 13 -170 20 -16 3 -50 8
-75 11 -25 3 -56 8 -70 10 -14 3 -38 7 -55 10 -16 3 -66 12 -110 21 -44 8 -87
16 -95 18 -8 1 -26 5 -40 8 -14 4 -74 18 -135 33 -220 52 -520 143 -700 211
-49 19 -94 35 -100 37 -5 1 -27 10 -49 19 -21 9 -42 17 -47 17 -5 0 -17 4 -27
9 -9 5 -28 14 -42 20 -153 66 -215 94 -272 120 -36 17 -69 31 -73 31 -3 0 27
-28 67 -62 40 -35 82 -71 93 -81 24 -22 242 -188 266 -202 9 -5 48 -31 86 -57
39 -27 75 -48 81 -48 6 0 12 -4 14 -8 1 -5 44 -32 93 -61 50 -28 97 -56 105
-60 90 -54 435 -212 444 -203 3 3 6 1 6 -5 0 -6 14 -13 30 -16 28 -6 30 -10
31 -49 1 -59 1 -143 0 -203 -1 -27 -1 -119 -1 -202 l0 -153 243 -1 c339 0 491
1 495 6 3 2 4 85 4 184 l1 180 22 -9 c12 -5 35 -11 51 -13 16 -3 72 -14 124
-25 127 -27 313 -57 415 -67 99 -10 144 -15 175 -20 186 -27 767 -22 1025 9
22 3 72 8 110 11 39 4 72 9 75 10 3 2 33 7 65 10 33 4 62 9 65 10 3 2 25 6 50
10 25 4 47 8 50 10 3 2 23 6 45 9 22 4 103 22 180 42 77 19 148 36 157 39 9 2
26 9 37 15 12 6 21 9 21 6 0 -2 37 9 83 26 45 16 93 33 107 37 113 36 388 168
550 265 97 57 110 63 110 47 0 -10 100 -175 120 -198 5 -7 10 -14 10 -17 0 -2
40 -69 89 -148 48 -78 127 -207 175 -285 49 -79 93 -143 99 -143 59 -2 842 1
844 3 4 4 -69 111 -79 115 -4 2 -8 8 -8 13 0 9 -78 129 -91 139 -3 3 -8 10
-10 16 -7 18 -164 249 -171 252 -5 2 -8 10 -8 18 0 8 -4 14 -9 14 -5 0 -13 9
-16 20 -3 11 -12 26 -18 32 -7 7 -28 38 -47 68 -19 30 -37 57 -40 60 -3 3 -45
66 -95 140 -49 74 -93 137 -97 138 -4 2 -8 8 -8 14 0 5 -11 24 -25 42 -14 18
-25 38 -25 44 0 6 -3 12 -7 14 -5 1 -21 20 -37 41 l-28 39 58 60 c146 150 194
205 295 334 30 38 56 71 59 74 16 14 171 248 228 344 65 110 167 309 215 416
l24 56 109 -3 c60 -2 151 -4 202 -5 50 -2 92 0 92 5 0 4 -11 35 -25 69 -14 34
-25 67 -25 75 0 7 -4 21 -10 31 -5 9 -33 80 -61 157 -27 77 -57 157 -65 178
-8 20 -20 54 -28 75 -8 20 -29 78 -46 127 -18 50 -36 99 -41 110 -5 11 -34 90
-65 175 -106 293 -122 335 -149 405 -15 39 -28 77 -30 85 -2 8 -4 16 -5 18 -2
1 -3 5 -5 10 -1 4 -7 21 -14 37 -13 32 -26 65 -86 235 -21 58 -41 108 -44 112
-3 3 -18 -8 -33 -25z"/>
<path d="M1502 5612 c-18 -3 -23 -8 -19 -23 3 -10 1 -19 -5 -19 -5 0 -6 -4 -3
-10 8 -13 9 -405 1 -419 -4 -5 -2 -12 4 -16 6 -4 8 -10 6 -14 -6 -9 -7 -40 -7
-291 0 -107 0 -199 0 -205 0 -5 1 -103 2 -217 0 -113 -2 -211 -5 -216 -4 -6
-2 -13 4 -17 6 -4 8 -10 6 -14 -6 -10 -7 -60 -5 -268 0 -94 -2 -176 -5 -182
-4 -5 -2 -12 4 -16 6 -4 8 -10 6 -14 -6 -9 -7 -65 -5 -187 1 -51 -1 -96 -5
-102 -3 -6 -2 -13 4 -17 6 -4 8 -10 6 -14 -3 -4 -6 -34 -8 -66 l-3 -60 55 -12
c91 -21 104 -24 134 -28 15 -2 35 -6 45 -9 9 -3 35 -8 58 -11 40 -6 61 -9 136
-20 68 -10 195 -26 255 -32 l62 -6 1 34 c0 19 1 98 1 177 0 125 2 142 17 143
9 1 279 2 601 3 l585 1 0 305 0 305 -50 3 c-27 1 -70 2 -95 1 -25 0 -51 0 -57
0 -26 2 -167 2 -263 0 -25 0 -51 0 -57 0 -20 2 -32 2 -128 1 -49 0 -97 0 -105
1 -8 0 -67 0 -130 0 -63 0 -123 -1 -132 -1 -10 1 -48 1 -85 1 -38 0 -75 0 -84
0 -16 0 -17 39 -15 457 l1 457 646 0 645 0 0 307 0 308 -25 1 c-128 2 -1972 3
-1989 1z"/>
<path d="M3840 5613 c0 -1 13 -21 28 -45 26 -39 106 -164 249 -388 30 -47 96
-150 148 -230 132 -207 183 -285 234 -365 84 -132 179 -280 284 -441 36 -56
72 -114 81 -130 8 -16 25 -42 38 -57 l24 -29 84 73 c147 125 380 369 380 397
0 10 -687 1172 -716 1210 -2 4 -834 8 -834 5z"/>
<path d="M7188 1875 c-149 -31 -228 -127 -233 -281 -3 -109 21 -174 89 -238
50 -45 93 -64 164 -71 18 -1 35 -5 38 -7 13 -13 169 14 227 39 l37 17 0 138
c0 76 -3 139 -7 139 -5 1 -56 2 -115 3 -117 1 -110 5 -110 -59 0 -41 1 -42 30
-43 63 0 61 2 61 -57 -1 -62 -11 -70 -89 -66 -118 5 -177 80 -168 211 6 83 34
130 89 155 42 19 121 25 164 13 17 -5 37 -11 45 -13 8 -2 16 -4 18 -5 1 -2 5
-3 10 -4 4 -1 17 -7 30 -14 22 -13 22 -12 22 48 0 58 -1 60 -34 74 -72 30
-182 39 -268 21z"/>
<path d="M1472 1820 c3 -54 3 -55 36 -58 37 -3 53 -3 104 -2 21 1 41 -1 46 -3
4 -3 7 -109 7 -236 l0 -231 75 0 76 0 -1 231 c-1 252 0 255 56 239 15 -5 30
-6 32 -4 3 3 28 5 56 6 l52 0 -3 56 -3 57 -268 0 -268 0 3 -55z"/>
<path d="M2432 1871 c-4 -4 -8 -135 -8 -293 l1 -288 75 0 75 0 0 108 0 107 37
3 c55 5 79 -18 132 -123 l48 -95 80 0 c43 0 77 3 75 8 -2 4 -25 50 -50 102
-46 95 -84 150 -106 150 -17 0 -13 20 7 27 47 19 80 75 77 138 -2 81 -36 126
-110 146 -41 12 -319 19 -333 10z m246 -110 c29 -2 51 -39 46 -78 -7 -53 -22
-64 -90 -66 l-59 -2 -1 65 c0 36 3 70 8 76 6 9 34 10 96 5z"/>
<path d="M3518 1850 c-39 -96 -100 -267 -101 -277 0 -7 -4 -13 -9 -13 -4 0 -8
-6 -8 -14 0 -11 -43 -132 -85 -239 -7 -16 -1 -18 70 -15 l78 3 15 45 c8 25 17
47 19 50 2 2 55 5 118 5 125 1 121 3 143 -70 8 -30 10 -30 85 -33 42 -2 77 0
77 4 0 3 -6 20 -14 37 -8 18 -21 52 -30 77 -8 25 -28 82 -45 128 -53 141 -88
235 -108 287 l-18 50 -89 0 c-85 0 -89 -1 -98 -25z m123 -185 c4 -11 13 -38
20 -60 6 -22 18 -52 26 -67 7 -16 10 -29 6 -29 -26 -4 -153 -3 -153 1 0 3 17
54 37 114 32 95 38 106 46 85 5 -13 13 -33 18 -44z"/>
<path d="M4339 1866 c-1 -6 -2 -138 -3 -294 l-1 -283 151 2 c173 2 245 19 306
69 54 45 91 127 93 208 3 98 -16 151 -78 218 -58 64 -133 84 -319 88 -101 2
-148 -1 -149 -8z m261 -113 c17 1 58 -18 78 -37 48 -43 66 -133 41 -207 -23
-67 -100 -109 -193 -106 l-40 2 1 170 c2 205 0 188 16 182 6 -2 21 -1 32 3 11
4 29 4 40 0 11 -4 22 -7 25 -7z"/>
<path d="M5344 1871 c-2 -2 -4 -134 -4 -293 l0 -288 75 0 75 0 0 293 0 293
-71 0 c-38 0 -72 -3 -75 -5z"/>
<path d="M5982 1871 c-4 -3 -7 -134 -7 -291 l0 -285 72 -3 71 -3 0 191 c0 105
2 193 4 195 2 2 36 -60 77 -138 41 -78 81 -150 90 -161 9 -10 14 -19 11 -20
-2 0 5 -16 15 -33 19 -33 19 -33 102 -33 l82 0 3 286 c2 178 -1 288 -7 292 -5
3 -38 6 -72 7 -61 1 -63 0 -64 -25 -1 -14 -1 -103 -1 -198 -1 -95 -2 -171 -3
-170 -6 6 -133 243 -184 343 l-26 50 -78 1 c-42 0 -80 -2 -85 -5z"/>
</g>
</svg>
